<?xml version="1.0" encoding="utf-8"?>
<svg width="496" height="286"  viewBox="0 0 143 104" version="1.1" xmlns:xlink="http://www.w3.org/1999/xlink" xmlns="http://www.w3.org/2000/svg">
  <desc>Created with Lunacy</desc>
  <g id="free-sample" fill="#3E3E3E">
    <path d="M1.566 13.472Q2.232 13.652 2.736 13.58Q3.348 13.508 3.924 13.454Q4.5 13.4 5.076 13.328L6.588 17.72Q6.624 17.864 6.714 18.242Q6.804 18.62 6.858 19.106Q6.912 19.592 6.912 20.168Q6.912 20.744 6.84 21.32Q6.768 21.824 6.876 22.112Q6.984 22.4 7.38 22.58Q7.884 22.76 8.316 22.256Q8.748 21.752 9.036 20.924Q9.216 20.348 9.324 19.736Q9.432 19.124 9.288 18.584Q9 17.612 8.514 16.154Q8.028 14.696 7.452 13.076Q8.316 13.004 9.108 12.914Q9.9 12.824 10.62 12.752Q10.944 12.716 11.286 12.644Q11.628 12.572 11.898 12.41Q12.168 12.248 12.312 12.014Q12.456 11.78 12.348 11.42Q11.916 10.988 11.232 10.772Q10.548 10.556 9.756 10.484Q8.316 10.412 6.588 10.592Q6.192 9.44 5.868 8.396Q5.544 7.352 5.292 6.452Q5.004 5.372 5.058 4.652Q5.112 3.932 5.364 3.482Q5.616 3.032 5.958 2.816Q6.3 2.6 6.552 2.564Q7.092 2.492 7.56 2.654Q8.028 2.816 8.442 3.122Q8.856 3.428 9.234 3.842Q9.612 4.256 9.936 4.652Q10.08 4.832 10.512 4.886Q10.944 4.94 11.304 4.58Q11.556 4.328 11.538 4.022Q11.52 3.716 11.376 3.32Q10.98 2.456 10.332 1.808Q9.684 1.16 8.892 0.763998Q8.1 0.368004 7.218 0.295998Q6.336 0.224001 5.436 0.511999Q3.24 1.232 2.772 2.888Q2.304 4.544 2.916 6.848L4.248 10.88Q3.492 10.988 2.754 11.114Q2.016 11.24 1.368 11.384Q0.684 11.528 0.612 11.87Q0.54 12.212 0.648 12.572Q0.9 13.292 1.566 13.472ZM127.368 3.284Q127.548 7.208 127.98 11.402Q128.412 15.596 128.916 19.412Q128.994 20.554 128.51 20.8914Q128.323 21.022 128.052 21.032Q127.836 21.032 127.62 20.87Q127.404 20.708 127.224 20.456Q127.044 20.204 126.882 19.916Q126.72 19.628 126.684 19.412Q126.396 17.576 126.144 15.524Q125.892 13.472 125.694 11.402Q125.496 9.332 125.352 7.352Q125.208 5.372 125.172 3.716Q125.244 2.852 125.424 2.258Q125.604 1.664 126.18 1.7Q126.792 1.736 127.062 2.186Q127.332 2.636 127.368 3.284ZM84.546 8.954Q84.456 7.82 84.312 6.812Q84.168 5.876 83.484 5.282Q82.8 4.688 81.54 4.724Q80.676 4.76 79.812 5.12Q78.948 5.48 78.12 6.038Q77.292 6.596 76.536 7.28Q75.78 7.964 75.168 8.612Q74.844 9.044 74.88 9.422Q74.916 9.8 75.204 10.088Q75.492 10.376 75.906 10.412Q76.32 10.448 76.644 10.124Q77.688 9.188 78.84 8.36Q79.992 7.532 80.856 7.244Q81.36 7.064 81.702 7.19Q82.044 7.316 82.116 7.856Q82.188 8.324 82.242 8.99Q82.296 9.656 82.332 10.412Q82.368 11.168 82.386 11.906Q82.404 12.644 82.404 13.256Q81.972 12.824 81.468 12.644Q80.964 12.464 80.478 12.446Q79.992 12.428 79.542 12.5Q79.092 12.572 78.84 12.68Q77.832 13.04 77.094 13.688Q76.356 14.336 75.924 15.146Q75.492 15.956 75.384 16.838Q75.276 17.72 75.492 18.548Q75.816 19.772 76.734 20.384Q77.652 20.996 78.804 20.816Q79.416 20.708 80.136 20.42Q80.856 20.132 81.576 19.754Q82.296 19.376 82.944 18.962Q83.592 18.548 84.096 18.188Q84.816 18.584 85.374 18.566Q85.932 18.548 86.148 17.9Q86.328 17.432 86.094 16.82Q85.86 16.208 84.708 15.416Q84.744 14.552 84.744 13.472Q84.744 12.392 84.69 11.24Q84.636 10.088 84.546 8.954ZM116.352 24.794Q116.676 24.452 116.712 24.056Q116.748 22.616 116.676 20.708Q116.604 18.8 116.424 16.856Q117.612 16.136 118.782 15.218Q119.952 14.3 120.762 13.166Q121.572 12.032 121.842 10.646Q122.112 9.26 121.5 7.604Q120.996 6.596 120.186 6.074Q119.376 5.552 118.368 5.39Q117.36 5.228 116.262 5.354Q115.164 5.48 114.102 5.786Q113.04 6.092 112.086 6.506Q111.132 6.92 110.448 7.316Q109.656 7.82 109.278 8.396Q108.9 8.972 109.224 9.692Q109.368 9.98 109.854 10.034Q110.34 10.088 110.844 9.8Q111.6 9.404 112.41 9.008Q113.22 8.612 114.066 8.324Q114.912 8.036 115.794 7.856Q116.676 7.676 117.576 7.712Q118.584 7.748 119.052 8.234Q119.52 8.72 119.592 9.332Q119.7 10.052 119.448 10.718Q119.196 11.384 118.71 11.996Q118.224 12.608 117.558 13.148Q116.892 13.688 116.136 14.156Q116.028 13.112 115.902 12.23Q115.776 11.348 115.668 10.664Q115.452 9.944 114.858 9.476Q114.264 9.008 113.796 9.188Q113.508 9.332 113.4 9.494Q113.292 9.656 113.22 9.836Q113.148 10.016 113.184 10.232Q113.364 11.456 113.526 12.752Q113.688 14.048 113.868 15.38Q113.148 15.812 112.824 16.28Q112.5 16.748 112.752 17.36Q112.896 17.72 113.274 17.882Q113.652 18.044 114.12 17.972Q114.228 19.556 114.3 21.05Q114.372 22.544 114.372 23.912Q114.372 24.2 114.696 24.632Q115.02 25.064 115.632 25.1Q116.028 25.136 116.352 24.794ZM69.84 9.368Q69.768 8.972 69.696 8.612Q69.624 8.252 69.336 8.144Q68.724 7.964 68.04 8.108Q67.356 8.252 66.78 8.558Q66.204 8.864 65.808 9.242Q65.412 9.62 65.376 9.908Q65.268 10.448 65.664 10.952Q66.06 11.456 66.816 11.96Q68.076 12.716 69.444 13.508Q70.812 14.3 71.748 15.128Q72.684 15.956 73.026 16.946Q73.368 17.936 72.864 19.196Q72.468 20.168 71.388 20.78Q70.308 21.392 69.012 21.734Q67.716 22.076 66.42 22.202Q65.124 22.328 64.224 22.328Q64.008 22.328 63.702 22.166Q63.396 22.004 63.126 21.788Q62.856 21.572 62.658 21.338Q62.46 21.104 62.46 20.924Q62.46 20.276 63.036 20.024Q63.612 19.772 64.224 19.772Q65.088 19.772 66.078 19.682Q67.068 19.592 67.968 19.394Q68.868 19.196 69.588 18.872Q70.308 18.548 70.596 18.044Q70.848 17.612 70.29 17.018Q69.732 16.424 68.814 15.776Q67.896 15.128 66.834 14.516Q65.772 13.904 65.016 13.4Q64.26 12.896 63.72 12.194Q63.18 11.492 63.036 10.448Q63 9.512 63.432 8.648Q63.864 7.784 64.566 7.118Q65.268 6.452 66.168 6.056Q67.068 5.66 67.968 5.66Q69.516 5.732 70.524 6.506Q71.532 7.28 71.712 8.792Q71.712 9.296 71.55 9.62Q71.388 9.944 70.992 10.016Q70.488 10.088 70.182 9.89Q69.876 9.692 69.84 9.368ZM24.246 8.468Q24.948 8.072 25.596 7.712Q26.064 7.388 26.154 6.992Q26.244 6.596 26.1 6.416Q25.956 6.236 25.596 6.164Q25.236 6.092 24.696 6.164Q23.436 6.38 22.23 7.028Q21.024 7.676 20.07 8.612Q19.116 9.548 18.468 10.7Q17.82 11.852 17.676 13.076Q17.46 12.032 17.244 10.574Q17.028 9.116 16.884 7.784Q16.812 7.388 16.416 7.208Q16.02 7.028 15.588 6.992Q15.192 6.956 14.886 7.1Q14.58 7.244 14.58 7.748Q14.868 10.232 15.264 12.734Q15.66 15.236 16.272 17.792Q16.416 18.44 16.83 19.142Q17.244 19.844 17.928 19.844Q18.468 19.844 18.774 19.178Q19.08 18.512 19.08 17.864Q19.152 16.496 19.404 15.074Q19.656 13.652 20.376 12.284Q20.88 11.312 21.51 10.61Q22.14 9.908 22.842 9.386Q23.544 8.864 24.246 8.468ZM36.468 11.672Q35.064 12.5 33.444 12.95Q31.824 13.4 29.952 13.4Q30.024 14.66 30.672 15.398Q31.32 16.136 32.292 16.28Q32.868 16.352 33.462 16.244Q34.056 16.136 34.578 15.902Q35.1 15.668 35.532 15.38Q35.964 15.092 36.288 14.804Q36.612 14.516 36.972 14.426Q37.332 14.336 37.512 14.408Q38.016 14.588 37.872 15.488Q37.296 16.64 36.216 17.45Q35.136 18.26 33.804 18.476Q32.652 18.692 31.428 18.368Q30.204 18.044 29.232 17.108Q28.404 16.28 27.972 15.164Q27.54 14.048 27.432 12.86Q27.324 11.744 27.63 10.736Q27.936 9.728 28.584 8.954Q29.232 8.18 30.204 7.676Q31.176 7.172 32.472 7.1Q34.02 6.992 35.28 7.676Q36.54 8.36 37.044 9.584Q37.332 10.268 37.206 10.772Q37.08 11.276 36.468 11.672ZM46.08 12.95Q47.7 12.5 49.104 11.672Q49.716 11.276 49.842 10.772Q49.968 10.268 49.68 9.584Q49.176 8.36 47.916 7.676Q46.656 6.992 45.108 7.1Q43.812 7.172 42.84 7.676Q41.868 8.18 41.22 8.954Q40.572 9.728 40.266 10.736Q39.96 11.744 40.068 12.86Q40.176 14.048 40.608 15.164Q41.04 16.28 41.868 17.108Q42.84 18.044 44.064 18.368Q45.288 18.692 46.44 18.476Q47.772 18.26 48.852 17.45Q49.932 16.64 50.508 15.488Q50.652 14.588 50.148 14.408Q49.968 14.336 49.608 14.426Q49.248 14.516 48.924 14.804Q48.6 15.092 48.168 15.38Q47.736 15.668 47.214 15.902Q46.692 16.136 46.098 16.244Q45.504 16.352 44.928 16.28Q43.956 16.136 43.308 15.398Q42.66 14.66 42.588 13.4Q44.46 13.4 46.08 12.95ZM137.556 12.95Q139.176 12.5 140.58 11.672Q141.192 11.276 141.318 10.772Q141.444 10.268 141.156 9.584Q140.652 8.36 139.392 7.676Q138.132 6.992 136.584 7.1Q135.288 7.172 134.316 7.676Q133.344 8.18 132.696 8.954Q132.048 9.728 131.742 10.736Q131.436 11.744 131.544 12.86Q131.652 14.048 132.084 15.164Q132.516 16.28 133.344 17.108Q134.316 18.044 135.54 18.368Q136.764 18.692 137.916 18.476Q139.248 18.26 140.328 17.45Q141.408 16.64 141.984 15.488Q142.128 14.588 141.624 14.408Q141.444 14.336 141.084 14.426Q140.724 14.516 140.4 14.804Q140.076 15.092 139.644 15.38Q139.212 15.668 138.69 15.902Q138.168 16.136 137.574 16.244Q136.98 16.352 136.404 16.28Q135.432 16.136 134.784 15.398Q134.136 14.66 134.064 13.4Q135.936 13.4 137.556 12.95ZM90.396 8.504Q90.432 9.08 90.522 9.926Q90.612 10.772 90.72 11.69Q90.828 12.608 90.954 13.508Q91.08 14.408 91.188 15.164L92.16 13.22Q92.736 12.068 93.366 11.006Q93.996 9.944 94.662 9.206Q95.328 8.468 95.868 8.468Q96.444 8.468 96.93 9.026Q97.416 9.584 97.776 10.376Q98.136 11.168 98.406 12.068Q98.676 12.968 98.856 13.652Q99 13.184 99.234 12.59Q99.468 11.996 99.738 11.366Q100.008 10.736 100.35 10.124Q100.692 9.512 101.088 9.044Q101.556 8.54 102.096 8.306Q102.636 8.072 102.888 8.072Q103.212 8.072 103.662 8.27Q104.112 8.468 104.58 8.792Q105.048 9.116 105.462 9.566Q105.876 10.016 106.128 10.484Q106.632 11.456 106.938 12.608Q107.244 13.76 107.388 14.804Q107.532 15.848 107.586 16.658Q107.64 17.468 107.676 17.792Q107.676 18.26 107.568 18.494Q107.46 18.728 107.172 18.872Q106.776 19.052 106.488 18.998Q106.2 18.944 106.02 18.764Q105.84 18.584 105.732 18.35Q105.624 18.116 105.588 17.936Q105.48 17.108 105.354 16.244Q105.228 15.38 105.084 14.57Q104.94 13.76 104.742 13.058Q104.544 12.356 104.328 11.816Q104.256 11.672 104.094 11.438Q103.932 11.204 103.734 10.988Q103.536 10.772 103.356 10.628Q103.176 10.484 103.104 10.448Q102.744 10.448 102.348 11.114Q101.952 11.78 101.592 12.716Q101.232 13.652 100.926 14.678Q100.62 15.704 100.476 16.424Q100.476 17.36 100.116 17.81Q99.756 18.26 99.36 18.26Q98.964 18.26 98.514 17.954Q98.064 17.648 97.92 17.252Q97.704 16.676 97.452 15.956Q97.2 15.236 96.93 14.48Q96.66 13.724 96.39 13.004Q96.12 12.284 95.868 11.708Q95.364 12.392 94.878 13.22Q94.392 14.048 93.942 14.912Q93.492 15.776 93.078 16.622Q92.664 17.468 92.304 18.116Q92.052 18.512 91.764 18.818Q91.476 19.124 91.08 19.124Q90.792 19.124 90.468 18.854Q90.144 18.584 89.856 18.188Q89.568 17.792 89.334 17.288Q89.1 16.784 88.992 16.28Q88.704 14.732 88.506 12.878Q88.308 11.024 88.128 9.26Q88.092 8.648 88.29 8.126Q88.488 7.604 89.064 7.424Q89.676 7.316 90 7.604Q90.324 7.892 90.396 8.504ZM32.328 9.224Q31.968 9.296 31.554 9.476Q31.14 9.656 30.798 9.926Q30.456 10.196 30.186 10.538Q29.916 10.88 29.88 11.312Q30.492 11.312 31.23 11.204Q31.968 11.096 32.67 10.934Q33.372 10.772 33.966 10.556Q34.56 10.34 34.956 10.088Q34.668 9.404 33.894 9.242Q33.12 9.08 32.328 9.224ZM44.19 9.476Q44.604 9.296 44.964 9.224Q45.756 9.08 46.53 9.242Q47.304 9.404 47.592 10.088Q47.196 10.34 46.602 10.556Q46.008 10.772 45.306 10.934Q44.604 11.096 43.866 11.204Q43.128 11.312 42.516 11.312Q42.552 10.88 42.822 10.538Q43.092 10.196 43.434 9.926Q43.776 9.656 44.19 9.476ZM135.666 9.476Q136.08 9.296 136.44 9.224Q137.232 9.08 138.006 9.242Q138.78 9.404 139.068 10.088Q138.672 10.34 138.078 10.556Q137.484 10.772 136.782 10.934Q136.08 11.096 135.342 11.204Q134.604 11.312 133.992 11.312Q134.028 10.88 134.298 10.538Q134.568 10.196 134.91 9.926Q135.252 9.656 135.666 9.476ZM79.146 15.002Q79.668 14.66 80.136 14.552Q80.424 14.516 80.766 14.768Q81.108 15.02 81.396 15.362Q81.684 15.704 81.9 16.046Q82.116 16.388 82.116 16.604Q81.468 17.216 80.37 17.738Q79.272 18.26 78.408 18.44Q78.12 18.512 77.886 18.404Q77.652 18.296 77.58 18.08Q77.4 17.504 77.598 16.91Q77.796 16.316 78.21 15.83Q78.624 15.344 79.146 15.002Z" />
  </g>
  <path d="M3.71227 0C-5.28772 39.0001 1.71226 40 28.7123 77" transform="translate(42.28772 25)" id="New-shape" fill="none" fill-rule="evenodd" stroke="#3E3E3E" stroke-width="3" />
  <path d="M0 11L19 15.5L19 0" transform="translate(52 86)" id="New-shape-3" fill="none" fill-rule="evenodd" stroke="#3E3E3E" stroke-width="3" />
</svg>